<svg width="20" height="20" viewBox="0 0 20 20" fill="none" xmlns="http://www.w3.org/2000/svg">
<g opacity="0.5">
<path d="M15.5834 8.08332L10.5834 13.0833C10.4167 13.25 10.2501 13.3333 10.0001 13.3333C9.75008 13.3333 9.58342 13.25 9.41675 13.0833L4.41675 8.08332C4.08341 7.74999 4.08341 7.24999 4.41675 6.91666C4.75008 6.58332 5.25008 6.58332 5.58341 6.91666L10.0001 11.3333L14.4167 6.91666C14.7501 6.58332 15.2501 6.58332 15.5834 6.91666C15.9167 7.24999 15.9167 7.74999 15.5834 8.08332Z" fill="black"/>
<mask id="mask0_39_2895" style="mask-type:luminance" maskUnits="userSpaceOnUse" x="4" y="6" width="12" height="8">
<path d="M15.5834 8.08332L10.5834 13.0833C10.4167 13.25 10.2501 13.3333 10.0001 13.3333C9.75008 13.3333 9.58342 13.25 9.41675 13.0833L4.41675 8.08332C4.08341 7.74999 4.08341 7.24999 4.41675 6.91666C4.75008 6.58332 5.25008 6.58332 5.58341 6.91666L10.0001 11.3333L14.4167 6.91666C14.7501 6.58332 15.2501 6.58332 15.5834 6.91666C15.9167 7.24999 15.9167 7.74999 15.5834 8.08332Z" fill="white"/>
</mask>
<g mask="url(#mask0_39_2895)">
<rect width="20" height="20" fill="white"/>
</g>
</g>
</svg>
